<svg xmlns="http://www.w3.org/2000/svg" width="16" height="16.257" viewBox="0 0 16 16.257">
  <g id="Search_Icon" data-name="Search Icon" transform="translate(-5.7 -5)">
    <path id="Path_3847" data-name="Path 3847" d="M20.493,14.5a5.193,5.193,0,1,0,5.193,5.193A5.2,5.2,0,0,0,20.493,14.5Z" transform="translate(-7.863 -7.781)" fill="none"/>
    <path id="Path_3848" data-name="Path 3848" d="M18.309,16.236a7.149,7.149,0,1,0-1.68,1.572l.036.036,3.071,3.071a1.182,1.182,0,0,0,.813.343,1.107,1.107,0,0,0,.813-.343,1.145,1.145,0,0,0,0-1.626Zm-5.6.488a4.715,4.715,0,1,1,4.715-4.715A4.718,4.718,0,0,1,12.709,16.723Z" fill="#b8b8ba"/>
  </g>
</svg>
